<svg width="20" height="15" viewBox="0 0 20 15" fill="none" xmlns="http://www.w3.org/2000/svg">
<path d="M14 13V15H0V13C0 13 0 9.00001 7 9.00001C14 9.00001 14 13 14 13ZM10.5 3.50001C10.5 2.80777 10.2947 2.13108 9.91014 1.55551C9.52556 0.979939 8.97893 0.531335 8.33939 0.266429C7.69985 0.00152189 6.99612 -0.0677898 6.31718 0.0672585C5.63825 0.202307 5.01461 0.535649 4.52513 1.02513C4.03564 1.51462 3.7023 2.13826 3.56725 2.81719C3.4322 3.49612 3.50152 4.19986 3.76642 4.8394C4.03133 5.47894 4.47993 6.02557 5.0555 6.41015C5.63108 6.79474 6.30777 7.00001 7 7.00001C7.92826 7.00001 8.8185 6.63126 9.47487 5.97488C10.1313 5.3185 10.5 4.42826 10.5 3.50001ZM13.94 9.00001C14.5547 9.47575 15.0578 10.0804 15.4137 10.7715C15.7696 11.4626 15.9697 12.2233 16 13V15H20V13C20 13 20 9.37001 13.94 9.00001ZM13 6.80263e-06C12.3117 -0.00382591 11.6385 0.201962 11.07 0.590007C11.6774 1.43874 12.0041 2.45629 12.0041 3.50001C12.0041 4.54372 11.6774 5.56127 11.07 6.41001C11.6385 6.79805 12.3117 7.00384 13 7.00001C13.9283 7.00001 14.8185 6.63126 15.4749 5.97488C16.1313 5.3185 16.5 4.42826 16.5 3.50001C16.5 2.57175 16.1313 1.68151 15.4749 1.02513C14.8185 0.368756 13.9283 6.80263e-06 13 6.80263e-06Z" fill="white"/>
</svg>
