<svg width="14" height="19" viewBox="0 0 14 19" fill="none" xmlns="http://www.w3.org/2000/svg">
<path d="M7 0C7.79565 0 8.55871 0.316071 9.12132 0.87868C9.68393 1.44129 10 2.20435 10 3V9C10 9.79565 9.68393 10.5587 9.12132 11.1213C8.55871 11.6839 7.79565 12 7 12C6.20435 12 5.44129 11.6839 4.87868 11.1213C4.31607 10.5587 4 9.79565 4 9V3C4 2.20435 4.31607 1.44129 4.87868 0.87868C5.44129 0.316071 6.20435 0 7 0ZM14 9C14 12.53 11.39 15.44 8 15.93V19H6V15.93C2.61 15.44 0 12.53 0 9H2C2 10.3261 2.52678 11.5979 3.46447 12.5355C4.40215 13.4732 5.67392 14 7 14C8.32608 14 9.59785 13.4732 10.5355 12.5355C11.4732 11.5979 12 10.3261 12 9H14Z" fill="white"/>
</svg>
